<svg width="15" height="20" viewBox="0 0 15 20" fill="none" xmlns="http://www.w3.org/2000/svg">
<path d="M6.40949 17.9917V11.9217C5.11773 11.7348 3.90393 11.1906 2.90507 10.3504C1.90621 9.51028 1.16206 8.40768 0.756592 7.16705C0.351126 5.92643 0.300492 4.59717 0.610403 3.32929C0.920314 2.06141 1.57843 0.905393 2.51049 -0.00830078L12.3085 -0.00830078C13.2405 0.905393 13.8987 2.06141 14.2086 3.32929C14.5185 4.59717 14.4678 5.92643 14.0624 7.16705C13.6569 8.40768 12.9128 9.51028 11.9139 10.3504C10.915 11.1906 9.70124 11.7348 8.40949 11.9217V17.9917H10.4095C10.6747 17.9917 10.9291 18.0971 11.1166 18.2846C11.3041 18.4721 11.4095 18.7265 11.4095 18.9917C11.4095 19.2569 11.3041 19.5113 11.1166 19.6988C10.9291 19.8863 10.6747 19.9917 10.4095 19.9917H4.40949C4.14427 19.9917 3.88991 19.8863 3.70238 19.6988C3.51484 19.5113 3.40949 19.2569 3.40949 18.9917C3.40949 18.7265 3.51484 18.4721 3.70238 18.2846C3.88991 18.0971 4.14427 17.9917 4.40949 17.9917H6.40949ZM2.40949 4.9917H12.4095C12.1715 3.5617 11.8385 2.5617 11.4095 1.9917H3.40949C2.98049 2.5617 2.64749 3.5617 2.40949 4.9917Z" fill="#6D865E"/>
</svg>
