<svg width="15" height="22" viewBox="0 0 15 22" fill="none" xmlns="http://www.w3.org/2000/svg">
<path d="M14.4102 10.9917C14.4102 9.6017 13.4602 8.4617 12.1902 8.1117C12.3743 7.65668 12.4439 7.16338 12.3926 6.67518C12.3414 6.18698 12.1711 5.71884 11.8965 5.31193C11.6219 4.90502 11.2516 4.57181 10.8181 4.3416C10.3845 4.11139 9.90103 3.99123 9.41016 3.9917C8.98016 3.9917 8.58016 4.0917 8.22016 4.2517C8.41016 3.1817 8.80016 1.5817 9.81016 1.1917L9.01016 -0.00830078C7.31016 0.761699 6.81016 3.0817 6.67016 4.2817C6.28016 4.1017 5.86016 3.9917 5.41016 3.9917C4.91928 3.99123 4.43581 4.11139 4.00226 4.3416C3.56871 4.57181 3.19837 4.90502 2.92381 5.31193C2.64925 5.71884 2.47887 6.18698 2.42766 6.67518C2.37646 7.16338 2.446 7.65668 2.63016 8.1117C1.35016 8.4517 0.410156 9.6117 0.410156 10.9917C0.410156 12.3817 1.36016 13.5317 2.64016 13.8717C2.50016 14.2117 2.41016 14.5917 2.41016 14.9917C2.41016 16.3817 3.35016 17.5317 4.63016 17.8717C4.446 18.3267 4.37646 18.82 4.42766 19.3082C4.47887 19.7964 4.64925 20.2646 4.92381 20.6715C5.19837 21.0784 5.56871 21.4116 6.00226 21.6418C6.43581 21.872 6.91928 21.9922 7.41016 21.9917C7.90103 21.9922 8.3845 21.872 8.81805 21.6418C9.2516 21.4116 9.62194 21.0784 9.8965 20.6715C10.1711 20.2646 10.3414 19.7964 10.3926 19.3082C10.4439 18.82 10.3743 18.3267 10.1902 17.8717C10.8267 17.7049 11.3899 17.3317 11.7916 16.8105C12.1933 16.2894 12.4109 15.6497 12.4102 14.9917C12.4102 14.5917 12.3302 14.2217 12.1802 13.8717C12.8178 13.7055 13.3825 13.3328 13.786 12.8117C14.1894 12.2907 14.4089 11.6507 14.4102 10.9917ZM11.7202 8.8717V8.8917H11.7102L11.7202 8.8717ZM9.41016 5.4917C10.2402 5.4917 10.9102 6.1617 10.9102 6.9917C10.9102 7.8217 10.2402 8.4917 9.41016 8.4917C8.58016 8.4917 7.91016 7.8217 7.91016 6.9917C7.91016 6.1617 8.58016 5.4917 9.41016 5.4917ZM8.91016 10.9917C8.91016 11.8217 8.24016 12.4917 7.41016 12.4917C6.58016 12.4917 5.91016 11.8217 5.91016 10.9917C5.91016 10.1617 6.58016 9.4917 7.41016 9.4917C8.24016 9.4917 8.91016 10.1617 8.91016 10.9917ZM5.41016 5.4917C6.24016 5.4917 6.91016 6.1617 6.91016 6.9917C6.91016 7.8217 6.24016 8.4917 5.41016 8.4917C4.58016 8.4917 3.91016 7.8217 3.91016 6.9917C3.91016 6.1617 4.58016 5.4917 5.41016 5.4917ZM1.91016 10.9917C1.91016 10.1617 2.58016 9.4917 3.41016 9.4917C4.24016 9.4917 4.91016 10.1617 4.91016 10.9917C4.91016 11.8217 4.24016 12.4917 3.41016 12.4917C2.58016 12.4917 1.91016 11.8217 1.91016 10.9917ZM3.91016 14.9917C3.91016 14.1617 4.58016 13.4917 5.41016 13.4917C6.24016 13.4917 6.91016 14.1617 6.91016 14.9917C6.91016 15.8217 6.24016 16.4917 5.41016 16.4917C4.58016 16.4917 3.91016 15.8217 3.91016 14.9917ZM7.41016 20.4917C6.58016 20.4917 5.91016 19.8217 5.91016 18.9917C5.91016 18.1617 6.58016 17.4917 7.41016 17.4917C8.24016 17.4917 8.91016 18.1617 8.91016 18.9917C8.91016 19.8217 8.24016 20.4917 7.41016 20.4917ZM9.41016 16.4917C8.58016 16.4917 7.91016 15.8217 7.91016 14.9917C7.91016 14.1617 8.58016 13.4917 9.41016 13.4917C10.2402 13.4917 10.9102 14.1617 10.9102 14.9917C10.9102 15.8217 10.2402 16.4917 9.41016 16.4917ZM11.4102 12.4917C10.5802 12.4917 9.91016 11.8217 9.91016 10.9917C9.91016 10.1617 10.5802 9.4917 11.4102 9.4917C12.2402 9.4917 12.9102 10.1617 12.9102 10.9917C12.9102 11.8217 12.2402 12.4917 11.4102 12.4917Z" fill="#6D865E"/>
</svg>
